<?xml version="1.0" encoding="UTF-8" standalone="no"?>
<!DOCTYPE svg PUBLIC "-//W3C//DTD SVG 1.1//EN" "http://www.w3.org/Graphics/SVG/1.1/DTD/svg11.dtd">
<svg version="1.1" xmlns="http://www.w3.org/2000/svg" xmlns:xlink="http://www.w3.org/1999/xlink" preserveAspectRatio="xMidYMid meet" viewBox="0 0 640 640" width="640" height="640"><defs><path d="M517.35 144.74L520.06 145.23L522.76 145.71L525.47 146.2L528.18 146.68L530.89 147.17L533.59 147.65L536.3 148.14L539.01 148.63L541.72 149.11L544.43 149.6L547.14 150.09L549.85 150.58L552.56 151.07L555.26 151.56L557.97 152.05L560.68 152.54L563.39 153.03L566.1 153.52L568.81 154.02L571.52 154.51L574.23 155.01L576.93 155.51L579.64 156.01L582.35 156.51L585.06 157.01L587.76 157.51L590.47 158.02L593.17 158.52L595.88 159.03L598.58 159.54L601.28 160.05L603.99 160.56L606.69 161.08L609.39 161.59L612.09 162.11L614.79 162.63L617.48 163.16L620.18 163.68L622.88 164.21L625.57 164.73L626.02 164.81L626.46 164.89L626.91 164.99L627.34 165.09L627.78 165.2L628.21 165.33L628.64 165.46L629.07 165.59L629.49 165.74L629.91 165.9L630.33 166.06L630.74 166.24L631.14 166.42L631.55 166.61L631.95 166.81L632.34 167.01L632.73 167.23L633.11 167.45L633.49 167.68L633.87 167.92L634.24 168.16L634.6 168.42L634.96 168.68L635.32 168.95L635.67 169.22L636.01 169.51L636.35 169.8L636.68 170.1L637 170.4L637.32 170.71L637.64 171.03L637.94 171.36L638.24 171.69L638.54 172.03L638.82 172.38L639.1 172.73L639.38 173.09L639.64 173.45L639.9 173.83L640.15 174.2L640.3 174.65L640.43 175.09L640.52 175.53L640.58 175.95L640.61 176.37L640.61 176.79L640.58 177.19L640.53 177.59L640.45 177.99L640.35 178.37L640.22 178.75L640.07 179.13L639.9 179.49L639.71 179.85L639.49 180.21L639.26 180.55L639.01 180.89L638.73 181.22L638.45 181.55L638.14 181.87L637.82 182.18L637.49 182.49L637.14 182.79L636.77 183.08L636.4 183.36L636.02 183.64L635.62 183.91L635.22 184.18L634.8 184.44L634.38 184.69L633.95 184.93L633.52 185.17L633.08 185.4L632.64 185.63L632.19 185.84L631.74 186.05L631.29 186.26L630.83 186.46L630.38 186.65L629.93 186.83L625.57 188.78L581.53 211.78L389.89 309.78L389.4 310L388.91 310.23L388.43 310.48L387.96 310.73L387.49 311L387.04 311.28L386.59 311.56L386.15 311.86L385.72 312.17L385.3 312.49L384.88 312.82L384.48 313.16L384.08 313.51L383.7 313.87L383.32 314.24L382.95 314.62L382.59 315L382.25 315.4L381.91 315.8L381.58 316.21L381.26 316.63L380.96 317.06L380.66 317.49L380.38 317.94L380.1 318.39L379.84 318.84L379.59 319.31L379.35 319.78L379.12 320.25L378.9 320.73L378.7 321.22L378.51 321.72L378.33 322.22L378.16 322.72L378 323.24L377.86 323.75L377.73 324.27L377.61 324.8L377.51 325.33L377.42 325.86L376.73 329.01L376.04 332.15L375.35 335.3L374.67 338.45L373.98 341.59L373.29 344.74L372.6 347.89L371.92 351.04L371.23 354.19L370.54 357.34L369.85 360.49L369.16 363.64L368.47 366.79L367.78 369.94L367.1 373.09L366.41 376.24L365.72 379.39L365.03 382.54L364.34 385.69L363.65 388.84L362.96 391.99L362.26 395.14L361.57 398.29L360.88 401.44L360.19 404.59L359.5 407.74L358.81 410.89L358.11 414.04L357.42 417.19L356.72 420.34L356.03 423.49L355.34 426.64L354.64 429.79L353.95 432.94L353.25 436.09L352.55 439.23L351.86 442.38L351.16 445.53L350.46 448.67L349.76 451.82L336.68 510.59L336.32 512.26L335.96 513.92L335.6 515.59L335.24 517.26L334.88 518.92L334.52 520.59L334.16 522.25L333.79 523.92L333.43 525.58L333.07 527.24L332.7 528.91L332.34 530.57L331.97 532.23L331.61 533.89L331.24 535.55L330.87 537.21L330.51 538.87L330.14 540.53L329.77 542.18L329.4 543.84L329.02 545.5L328.65 547.16L328.27 548.81L327.9 550.47L327.52 552.12L327.14 553.77L326.76 555.43L326.38 557.08L325.99 558.73L325.61 560.39L325.22 562.04L324.83 563.69L324.44 565.34L324.05 566.99L323.66 568.64L323.26 570.28L322.86 571.93L322.46 573.58L322.06 575.23L321.65 576.87L321.54 577.22L321.41 577.56L321.28 577.89L321.14 578.23L320.99 578.56L320.84 578.89L320.68 579.21L320.51 579.53L320.34 579.84L320.16 580.15L319.97 580.46L319.78 580.76L319.58 581.06L319.38 581.35L319.17 581.64L318.95 581.92L318.73 582.2L318.5 582.47L318.27 582.74L318.03 583.01L317.78 583.27L317.53 583.52L317.28 583.77L317.01 584.01L316.75 584.25L316.48 584.48L316.2 584.71L315.92 584.93L315.63 585.14L315.34 585.35L315.05 585.55L314.74 585.75L314.44 585.94L314.13 586.13L313.82 586.3L313.5 586.47L313.18 586.64L312.85 586.8L312.52 586.95L312.19 587.09L312.03 587.24L311.79 587.17L311.54 587.1L311.29 587.03L311.04 586.95L310.8 586.87L310.56 586.78L310.31 586.7L310.07 586.61L309.83 586.52L309.59 586.42L309.35 586.33L309.11 586.23L308.88 586.13L308.64 586.02L308.41 585.92L308.17 585.81L307.94 585.69L307.71 585.58L307.48 585.46L307.26 585.34L307.03 585.22L306.81 585.09L306.58 584.97L306.36 584.84L306.14 584.71L305.92 584.57L305.7 584.43L305.49 584.29L305.27 584.15L305.06 584.01L304.85 583.86L304.64 583.71L304.43 583.56L304.22 583.41L304.02 583.25L303.81 583.09L303.61 582.93L303.41 582.77L303.21 582.6L303.02 582.43L302.92 582.35L302.82 582.28L302.73 582.2L302.63 582.12L302.53 582.04L302.44 581.97L302.34 581.89L302.24 581.81L302.14 581.74L302.04 581.66L301.94 581.59L301.84 581.51L301.74 581.44L301.64 581.37L301.54 581.29L301.44 581.22L301.34 581.15L301.24 581.07L301.14 581L301.04 580.93L300.94 580.86L300.84 580.79L300.73 580.72L300.63 580.65L300.53 580.58L300.43 580.51L300.32 580.44L300.22 580.37L300.12 580.3L300.01 580.23L299.91 580.17L299.8 580.1L299.7 580.03L299.59 579.97L299.49 579.9L299.38 579.84L299.28 579.77L299.17 579.71L299.06 579.64L298.96 579.58L298.93 579.54L298.9 579.5L298.87 579.46L298.84 579.41L298.81 579.37L298.78 579.33L298.75 579.29L298.72 579.25L298.69 579.2L298.67 579.16L298.64 579.12L298.61 579.08L298.59 579.03L298.56 578.99L298.54 578.94L298.51 578.9L298.49 578.86L298.46 578.81L298.44 578.77L298.42 578.72L298.4 578.67L298.37 578.63L298.35 578.58L298.33 578.54L298.31 578.49L298.29 578.44L298.27 578.4L298.25 578.35L298.23 578.3L298.21 578.26L298.2 578.21L298.18 578.16L298.16 578.11L298.15 578.07L298.13 578.02L298.11 577.97L298.1 577.92L298.08 577.87L298.07 577.82L298.06 577.77L297.15 575.97L36.37 127.91L35.48 126.48L34.58 125.04L33.69 123.61L32.8 122.17L31.92 120.73L31.04 119.29L30.16 117.85L29.29 116.4L28.41 114.96L27.54 113.51L26.68 112.07L25.81 110.62L24.95 109.17L24.09 107.71L23.23 106.26L22.37 104.81L21.51 103.35L20.65 101.89L19.8 100.44L18.94 98.98L18.08 97.52L17.23 96.05L16.37 94.59L15.51 93.13L14.65 91.66L13.79 90.2L12.93 88.73L12.07 87.26L11.2 85.8L10.33 84.33L9.47 82.86L8.59 81.38L7.72 79.91L6.84 78.44L5.96 76.97L5.08 75.49L4.19 74.02L3.3 72.54L2.4 71.07L1.5 69.59L1.36 69.33L1.22 69.06L1.09 68.79L0.96 68.52L0.84 68.25L0.73 67.97L0.63 67.69L0.54 67.41L0.45 67.13L0.37 66.85L0.3 66.56L0.24 66.28L0.18 65.99L0.13 65.7L0.09 65.41L0.05 65.12L0.03 64.83L0.01 64.54L0 64.25L-0.01 63.95L0 63.66L0.01 63.37L0.03 63.08L0.05 62.79L0.09 62.5L0.13 62.21L0.18 61.92L0.24 61.63L0.3 61.35L0.37 61.06L0.45 60.78L0.54 60.5L0.63 60.22L0.73 59.94L0.84 59.66L0.96 59.39L1.09 59.12L1.22 58.85L1.36 58.58L1.5 58.32L1.63 58.1L1.77 57.89L1.9 57.68L2.05 57.48L2.19 57.28L2.34 57.08L2.49 56.89L2.65 56.7L2.81 56.51L2.98 56.33L3.15 56.15L3.32 55.97L3.49 55.8L3.67 55.63L3.86 55.46L4.04 55.3L4.23 55.15L4.42 54.99L4.62 54.85L4.82 54.7L5.02 54.56L5.22 54.43L5.43 54.29L5.64 54.17L5.85 54.04L6.07 53.93L6.29 53.81L6.51 53.7L6.73 53.6L6.95 53.5L7.18 53.4L7.41 53.31L7.64 53.22L7.88 53.14L8.11 53.07L8.35 52.99L8.59 52.93L8.83 52.87L9.07 52.81L9.32 52.76L19.39 54.56L517.35 144.74ZM308.28 535.24L308.32 535.06L308.37 534.88L308.42 534.7L308.47 534.53L308.52 534.36L308.57 534.18L308.63 534.01L308.68 533.84L308.73 533.68L308.79 533.51L308.84 533.35L308.9 533.18L308.95 533.02L309.01 532.86L309.06 532.7L309.12 532.54L309.17 532.38L309.23 532.22L309.28 532.07L309.33 531.91L309.38 531.76L309.43 531.6L309.48 531.45L309.52 531.3L309.57 531.15L309.61 531L309.65 530.84L309.69 530.7L309.72 530.55L309.76 530.4L309.79 530.25L309.82 530.1L309.84 529.95L309.86 529.81L309.88 529.66L309.9 529.51L309.91 529.36L309.92 529.22L309.93 529.07L309.93 528.92L323.31 466.55L324.09 462.96L324.87 459.36L325.66 455.77L326.44 452.18L327.22 448.59L328.01 445L328.79 441.42L329.58 437.83L330.36 434.24L331.15 430.65L331.94 427.07L332.73 423.48L333.52 419.9L334.31 416.31L335.1 412.73L335.89 409.14L336.68 405.56L337.47 401.98L338.26 398.4L339.05 394.81L339.85 391.23L340.64 387.65L341.43 384.07L342.23 380.49L343.02 376.92L343.82 373.34L344.62 369.76L345.41 366.18L346.21 362.61L347.01 359.03L347.81 355.46L348.61 351.88L349.41 348.31L350.21 344.74L351.01 341.16L351.81 337.59L352.61 334.02L353.42 330.45L354.22 326.88L355.02 323.31L355.12 322.87L355.2 322.44L355.27 322L355.33 321.57L355.37 321.13L355.4 320.7L355.41 320.27L355.41 319.83L355.4 319.4L355.37 318.97L355.34 318.55L355.28 318.12L355.22 317.7L355.14 317.28L355.05 316.86L354.95 316.45L354.83 316.04L354.71 315.63L354.57 315.23L354.41 314.83L354.25 314.44L354.07 314.05L353.89 313.67L353.69 313.29L353.48 312.92L353.25 312.56L353.02 312.2L352.78 311.85L352.52 311.51L352.25 311.17L351.98 310.84L351.69 310.52L351.39 310.21L351.08 309.91L350.76 309.61L350.43 309.32L350.09 309.05L349.74 308.78L349.38 308.52L349.01 308.28L129.56 157.97L62.23 110.78L59.52 109.27L46.75 102.96L304.82 546.96L308.28 535.24ZM73.65 93.94L80.26 98.6L148.5 145.19L358.93 288.59L359.23 288.82L359.52 289.05L359.83 289.28L360.13 289.5L360.44 289.71L360.75 289.92L361.07 290.12L361.39 290.32L361.71 290.51L362.03 290.7L362.36 290.88L362.69 291.06L363.02 291.23L363.36 291.39L363.69 291.55L364.03 291.7L364.38 291.85L364.72 291.99L365.07 292.12L365.42 292.25L365.77 292.37L366.13 292.49L366.48 292.6L366.84 292.7L367.2 292.8L367.56 292.9L367.92 292.98L368.29 293.06L368.65 293.14L369.02 293.21L369.39 293.27L369.76 293.33L370.13 293.38L370.5 293.42L370.88 293.46L371.25 293.49L371.63 293.51L372 293.53L372.38 293.54L372.76 293.55L373.03 293.52L373.3 293.5L373.57 293.47L373.83 293.43L374.1 293.4L374.37 293.36L374.63 293.32L374.9 293.28L375.17 293.23L375.43 293.18L375.7 293.13L375.96 293.07L376.22 293.01L376.48 292.95L376.75 292.89L377.01 292.82L377.27 292.75L377.53 292.68L377.78 292.6L378.04 292.53L378.3 292.44L378.55 292.36L378.81 292.28L379.06 292.19L379.31 292.09L379.57 292L379.82 291.9L380.07 291.8L380.32 291.7L380.56 291.59L380.81 291.49L381.06 291.37L381.3 291.26L381.54 291.14L381.79 291.03L382.03 290.9L382.27 290.78L382.51 290.65L382.74 290.52L382.98 290.39L384.14 289.79L385.46 289.11L386.93 288.35L388.56 287.51L390.34 286.59L392.26 285.6L394.34 284.53L396.55 283.38L398.91 282.16L401.4 280.87L404.03 279.51L406.79 278.09L409.67 276.59L412.69 275.03L415.83 273.41L419.09 271.73L422.47 269.98L425.97 268.18L429.58 266.31L433.3 264.39L437.12 262.42L441.06 260.39L445.09 258.31L449.23 256.18L453.46 254L457.79 251.78L462.21 249.51L466.72 247.19L471.32 244.83L476 242.43L480.76 239.98L485.6 237.5L490.51 234.99L495.5 232.43L500.56 229.84L505.69 227.22L510.88 224.57L516.13 221.89L521.45 219.18L526.82 216.44L580.63 188.78L580.76 188.72L580.89 188.65L581.01 188.58L581.14 188.51L581.27 188.44L581.4 188.37L581.52 188.3L581.65 188.23L581.78 188.16L581.9 188.09L582.03 188.02L582.16 187.94L582.28 187.87L582.41 187.8L582.53 187.73L582.66 187.65L582.78 187.58L582.91 187.5L583.03 187.43L583.16 187.35L583.28 187.28L583.4 187.2L583.53 187.13L583.65 187.05L583.77 186.97L583.9 186.9L584.02 186.82L584.14 186.74L584.26 186.66L584.38 186.58L584.51 186.51L584.63 186.43L584.75 186.35L584.87 186.27L584.99 186.19L585.11 186.1L585.23 186.02L585.35 185.94L585.47 185.86L585.59 185.78L595.51 179.61L71.7 84.77L69.29 90.78L73.65 93.94Z" id="f1GDuXx00Q"></path></defs><g><g><g><use xlink:href="#f1GDuXx00Q" opacity="1" fill="#ffffff" fill-opacity="1"></use><g><use xlink:href="#f1GDuXx00Q" opacity="1" fill-opacity="0" stroke="#000000" stroke-width="1" stroke-opacity="0"></use></g></g></g></g></svg>