<svg id="Layer_1" data-name="Layer 1" xmlns="http://www.w3.org/2000/svg" viewBox="0 0 42.58 35.56"><defs><style>.cls-1{fill:#fff;}</style></defs><title>sendWhute</title><path class="cls-1" d="M21.85,35.55a1.12,1.12,0,0,1-.63-.68c-.36-1.46-.68-2.93-1-4.41l-.87-3.91c-.62-2.79-1.23-5.59-1.84-8.38a1.4,1.4,0,0,0-.83-1.07L3.93,10.58,1,9.05.71,8.92c-.4-.16-.83-.44-.68-.84A1.42,1.42,0,0,1,1,7.45c2.39-.47,4.8-.9,7.2-1.33l33.13-6L42,0a.78.78,0,0,1,.52.37.75.75,0,0,1,0,.75C41.72,2.43,41,3.73,40.2,5L22.85,34.81l-.06.12a.34.34,0,0,1-.06.12,2.22,2.22,0,0,0-.27.19,1.54,1.54,0,0,1-.6.32ZM38.66,3.76l-.18.1L34,7l-14.6,10A.93.93,0,0,0,19,18q1.07,4.75,2.11,9.53L22,31.68c0,.13.07.26.11.42l.23.78L39.51,3.34ZM3,8.44l.66.41a3.24,3.24,0,0,0,.33.2l3.58,1.84q4.79,2.44,9.57,4.92a1.65,1.65,0,0,0,.68.21h0a1.47,1.47,0,0,0,.92-.33l14-9.54,4.54-3.1.44-.31.29-.21-.16-.4Z"/></svg>